<svg width="24" height="24" viewBox="0 0 24 24" fill="none" xmlns="http://www.w3.org/2000/svg">
<path d="M19.7549 2.964C19.6482 2.964 19.5415 2.94 19.4482 2.892C16.8877 1.704 14.6739 1.2 12.02 1.2C9.37946 1.2 6.87228 1.764 4.59182 2.892C4.27175 3.048 3.87167 2.94 3.68497 2.652C3.5116 2.364 3.63162 1.992 3.95169 1.836C6.43219 0.624 9.15275 0 12.02 0C14.8606 0 17.3411 0.564 20.0617 1.824C20.3951 1.98 20.5151 2.34 20.3417 2.628C20.2217 2.844 19.995 2.964 19.7549 2.964ZM0.671016 9.264C0.537655 9.264 0.404295 9.228 0.28427 9.156C-0.0224595 8.964 -0.0891399 8.592 0.124237 8.316C1.44451 6.636 3.12485 5.316 5.12526 4.392C9.31278 2.448 14.6739 2.436 18.8747 4.38C20.8751 5.304 22.5555 6.612 23.8758 8.28C24.0891 8.544 24.0225 8.928 23.7157 9.12C23.409 9.312 22.9956 9.252 22.7822 8.976C21.582 7.464 20.0617 6.276 18.2613 5.448C14.4338 3.684 9.5395 3.684 5.72538 5.46C3.91168 6.3 2.39137 7.5 1.19112 9.012C1.08443 9.18 0.884393 9.264 0.671016 9.264ZM9.00605 23.748C8.83269 23.748 8.65932 23.688 8.53929 23.568C7.37906 22.524 6.75226 21.852 5.85874 20.4C4.93856 18.924 4.45846 17.124 4.45846 15.192C4.45846 11.628 7.84582 8.724 12.0067 8.724C16.1675 8.724 19.5549 11.628 19.5549 15.192C19.5549 15.528 19.2615 15.792 18.8881 15.792C18.5147 15.792 18.2213 15.528 18.2213 15.192C18.2213 12.288 15.434 9.924 12.0067 9.924C8.5793 9.924 5.79206 12.288 5.79206 15.192C5.79206 16.92 6.21882 18.516 7.03232 19.812C7.88583 21.192 8.47261 21.78 9.49949 22.716C9.75287 22.956 9.75287 23.328 9.49949 23.568C9.35279 23.688 9.17942 23.748 9.00605 23.748ZM18.568 21.528C16.981 21.528 15.5807 21.168 14.4338 20.46C12.4468 19.248 11.2598 17.28 11.2598 15.192C11.2598 14.856 11.5532 14.592 11.9267 14.592C12.3001 14.592 12.5935 14.856 12.5935 15.192C12.5935 16.884 13.5537 18.48 15.1807 19.464C16.1275 20.04 17.2344 20.316 18.568 20.316C18.8881 20.316 19.4215 20.28 19.955 20.196C20.315 20.136 20.6618 20.352 20.7285 20.688C20.7951 21.012 20.5551 21.324 20.1817 21.384C19.4215 21.516 18.7547 21.528 18.568 21.528ZM15.8875 24C15.8341 24 15.7674 23.988 15.7141 23.976C13.5937 23.448 12.2067 22.74 10.7531 21.456C8.88603 19.788 7.85915 17.568 7.85915 15.192C7.85915 13.248 9.69953 11.664 11.9667 11.664C14.2338 11.664 16.0742 13.248 16.0742 15.192C16.0742 16.476 17.3144 17.52 18.8481 17.52C20.3817 17.52 21.622 16.476 21.622 15.192C21.622 10.668 17.2877 6.996 11.9533 6.996C8.16588 6.996 4.69851 8.892 3.13819 11.832C2.61808 12.804 2.35136 13.944 2.35136 15.192C2.35136 16.128 2.44471 17.604 3.24488 19.524C3.37824 19.836 3.20487 20.184 2.85813 20.292C2.51139 20.412 2.12465 20.244 2.00462 19.944C1.35115 18.372 1.03109 16.812 1.03109 15.192C1.03109 13.752 1.33782 12.444 1.93794 11.304C3.71164 7.956 7.64578 5.784 11.9533 5.784C18.0212 5.784 22.9556 9.996 22.9556 15.18C22.9556 17.124 21.1152 18.708 18.8481 18.708C16.5809 18.708 14.7406 17.124 14.7406 15.18C14.7406 13.896 13.5003 12.852 11.9667 12.852C10.433 12.852 9.19276 13.896 9.19276 15.18C9.19276 17.232 10.0729 19.152 11.6866 20.592C12.9535 21.72 14.1671 22.344 16.0475 22.812C16.4076 22.896 16.6076 23.232 16.5143 23.544C16.4476 23.82 16.1675 24 15.8875 24Z" fill="#011526"/>
</svg>
