<svg width="205" height="160" viewBox="0 0 205 160" fill="none" xmlns="http://www.w3.org/2000/svg">
<path d="M101.768 86.62C102.56 86.404 103.532 86.2 104.684 86.008C105.86 85.816 107.132 85.72 108.5 85.72C109.844 85.72 110.96 85.912 111.848 86.296C112.736 86.656 113.432 87.184 113.936 87.88C114.464 88.552 114.836 89.368 115.052 90.328C115.268 91.264 115.376 92.308 115.376 93.46V103H110.948V94.036C110.948 92.452 110.768 91.312 110.408 90.616C110.048 89.92 109.316 89.572 108.212 89.572C107.876 89.572 107.54 89.584 107.204 89.608C106.892 89.632 106.556 89.668 106.196 89.716V103H101.768V86.62ZM123.872 99.4C123.992 99.424 124.124 99.436 124.268 99.436C124.412 99.436 124.544 99.436 124.664 99.436C125.672 99.436 126.512 99.244 127.184 98.86C127.88 98.476 128.432 97.948 128.84 97.276C129.272 96.604 129.572 95.812 129.74 94.9C129.932 93.964 130.028 92.944 130.028 91.84C130.028 90.88 129.956 89.944 129.812 89.032C129.668 88.12 129.416 87.316 129.056 86.62C128.696 85.924 128.204 85.372 127.58 84.964C126.956 84.532 126.152 84.316 125.168 84.316C124.976 84.316 124.76 84.328 124.52 84.352C124.28 84.352 124.064 84.376 123.872 84.424V99.4ZM134.528 91.84C134.528 93.904 134.264 95.668 133.736 97.132C133.232 98.572 132.524 99.748 131.612 100.66C130.7 101.572 129.608 102.244 128.336 102.676C127.088 103.084 125.708 103.288 124.196 103.288C123.404 103.288 122.624 103.24 121.856 103.144C121.112 103.072 120.308 102.94 119.444 102.748V81.004C120.452 80.788 121.4 80.644 122.288 80.572C123.176 80.5 124.004 80.464 124.772 80.464C126.236 80.464 127.568 80.68 128.768 81.112C129.992 81.544 131.024 82.228 131.864 83.164C132.704 84.076 133.352 85.252 133.808 86.692C134.288 88.108 134.528 89.824 134.528 91.84ZM152.492 94.504C152.492 95.848 152.3 97.072 151.916 98.176C151.532 99.256 150.992 100.192 150.296 100.984C149.6 101.776 148.76 102.388 147.776 102.82C146.816 103.252 145.736 103.468 144.536 103.468C143.336 103.468 142.244 103.252 141.26 102.82C140.3 102.388 139.46 101.776 138.74 100.984C138.044 100.192 137.504 99.256 137.12 98.176C136.736 97.072 136.544 95.848 136.544 94.504C136.544 93.184 136.736 91.984 137.12 90.904C137.528 89.8 138.08 88.864 138.776 88.096C139.496 87.304 140.348 86.704 141.332 86.296C142.316 85.864 143.384 85.648 144.536 85.648C145.712 85.648 146.78 85.864 147.74 86.296C148.724 86.704 149.564 87.304 150.26 88.096C150.98 88.864 151.532 89.8 151.916 90.904C152.3 91.984 152.492 93.184 152.492 94.504ZM141.044 94.54C141.044 96.052 141.308 97.276 141.836 98.212C142.388 99.148 143.264 99.616 144.464 99.616C145.616 99.616 146.48 99.148 147.056 98.212C147.656 97.276 147.956 96.052 147.956 94.54C147.956 93.028 147.68 91.816 147.128 90.904C146.6 89.968 145.736 89.5 144.536 89.5C143.384 89.5 142.508 89.968 141.908 90.904C141.332 91.816 141.044 93.028 141.044 94.54ZM158.648 89.752H154.796V86.08H158.648V81.832L163.076 81.112V86.08H170.168V89.752H163.076V96.592C163.076 97.216 163.136 97.72 163.256 98.104C163.376 98.488 163.544 98.788 163.76 99.004C163.976 99.22 164.24 99.364 164.552 99.436C164.864 99.508 165.212 99.544 165.596 99.544C166.004 99.544 166.376 99.532 166.712 99.508C167.072 99.484 167.408 99.448 167.72 99.4C168.056 99.328 168.392 99.232 168.728 99.112C169.088 98.992 169.472 98.836 169.88 98.644L170.492 102.46C169.676 102.796 168.788 103.036 167.828 103.18C166.892 103.324 165.98 103.396 165.092 103.396C164.06 103.396 163.148 103.312 162.356 103.144C161.564 102.976 160.892 102.652 160.34 102.172C159.788 101.692 159.368 101.02 159.08 100.156C158.792 99.268 158.648 98.116 158.648 96.7V89.752Z" fill="white"/>
<path d="M45.9715 43V51.75H55.9572V52.0125C38.9815 54.1125 26 66.975 26 82.375C26 99.2625 41.6776 113 60.9501 113C80.2225 113 95.9001 99.2625 95.9001 82.375C95.9001 78.4375 94.9016 74.7625 93.4037 71.4375L84.3167 74.7625C85.4151 77.3 85.9144 79.75 85.9144 82.4625C85.9144 94.625 74.8302 104.338 60.9501 104.338C47.0699 104.338 35.9857 94.625 35.9857 82.4625C35.9857 70.3 47.0699 60.5875 60.9501 60.5875C63.9458 60.5875 66.8417 61.025 69.7375 61.9875L73.1327 53.7625C70.8359 53.0625 68.4394 52.7125 65.9429 52.3625V51.8375H75.9287V43.0875H45.9715V43ZM95.9001 53.15C95.9001 53.15 59.4522 77.7375 57.5549 79.4C55.6576 81.15 55.6576 83.6875 57.5549 85.4375C59.4522 87.1875 62.4479 87.1875 64.4451 85.4375C66.4422 83.6875 96 53.15 96 53.15H95.9001Z" fill="white"/>
</svg>
